<?xml version="1.0" encoding="UTF-8" standalone="yes"?><svg xmlns="http://www.w3.org/2000/svg" xmlns:xlink="http://www.w3.org/1999/xlink" height="347px" style="width:383px;height:347px;" version="1.1" viewBox="0 0 383 347" width="383px"><defs><filter height="300%" id="f1" width="300%" x="-1" y="-1"><feGaussianBlur result="blurOut" stdDeviation="2.0"/><feColorMatrix in="blurOut" result="blurOut2" type="matrix" values="0 0 0 0 0 0 0 0 0 0 0 0 0 0 0 0 0 0 .4 0"/><feOffset dx="4.0" dy="4.0" in="blurOut2" result="blurOut3"/><feBlend in="SourceGraphic" in2="blurOut3" mode="normal"/></filter></defs><g><rect fill="#FFFFFF" filter="url(#f1)" height="134.9261" style="stroke: #A80036; stroke-width: 1.0;" width="10" x="94" y="111.9923"/><rect fill="#FFFFFF" filter="url(#f1)" height="80.9557" style="stroke: #A80036; stroke-width: 1.0;" width="10" x="228" y="138.9775"/><rect fill="#FFFFFF" filter="url(#f1)" height="26.9852" style="stroke: #A80036; stroke-width: 1.0;" width="10" x="332" y="165.9628"/><line style="stroke: #A80036; stroke-width: 1.0; stroke-dasharray: 5.0,5.0;" x1="26" x2="26" y1="83.9923" y2="265.9037"/><line style="stroke: #A80036; stroke-width: 1.0; stroke-dasharray: 5.0,5.0;" x1="98.5" x2="98.5" y1="83.9923" y2="265.9037"/><line style="stroke: #A80036; stroke-width: 1.0; stroke-dasharray: 5.0,5.0;" x1="233" x2="233" y1="83.9923" y2="265.9037"/><line style="stroke: #A80036; stroke-width: 1.0; stroke-dasharray: 5.0,5.0;" x1="337" x2="337" y1="83.9923" y2="265.9037"/><text fill="#000000" font-family="sans-serif" font-size="14" lengthAdjust="spacingAndGlyphs" textLength="30" x="8" y="81.3128">User</text><ellipse cx="26" cy="13" fill="#FEFECE" filter="url(#f1)" rx="8" ry="8" style="stroke: #A80036; stroke-width: 2.0;"/><path d="M26,21 L26,48 M13,29 L39,29 M26,48 L13,63 M26,48 L39,63 " fill="#FEFECE" filter="url(#f1)" style="stroke: #A80036; stroke-width: 2.0;"/><text fill="#000000" font-family="sans-serif" font-size="14" lengthAdjust="spacingAndGlyphs" textLength="30" x="8" y="276.2165">User</text><ellipse cx="26" cy="288.896" fill="#FEFECE" filter="url(#f1)" rx="8" ry="8" style="stroke: #A80036; stroke-width: 2.0;"/><path d="M26,296.896 L26,323.896 M13,304.896 L39,304.896 M26,323.896 L13,338.896 M26,323.896 L39,338.896 " fill="#FEFECE" filter="url(#f1)" style="stroke: #A80036; stroke-width: 2.0;"/><rect fill="#FEFECE" filter="url(#f1)" height="27.9923" style="stroke: #A80036; stroke-width: 1.5;" width="79" x="57.5" y="51"/><text fill="#000000" font-family="sans-serif" font-size="14" lengthAdjust="spacingAndGlyphs" textLength="65" x="64.5" y="69.3128">First Class</text><rect fill="#FEFECE" filter="url(#f1)" height="27.9923" style="stroke: #A80036; stroke-width: 1.5;" width="79" x="57.5" y="264.9037"/><text fill="#000000" font-family="sans-serif" font-size="14" lengthAdjust="spacingAndGlyphs" textLength="65" x="64.5" y="283.2165">First Class</text><rect fill="#FEFECE" filter="url(#f1)" height="27.9923" style="stroke: #A80036; stroke-width: 1.5;" width="102" x="180" y="51"/><text fill="#000000" font-family="sans-serif" font-size="14" lengthAdjust="spacingAndGlyphs" textLength="88" x="187" y="69.3128">Second Class</text><rect fill="#FEFECE" filter="url(#f1)" height="27.9923" style="stroke: #A80036; stroke-width: 1.5;" width="102" x="180" y="264.9037"/><text fill="#000000" font-family="sans-serif" font-size="14" lengthAdjust="spacingAndGlyphs" textLength="88" x="187" y="283.2165">Second Class</text><rect fill="#FEFECE" filter="url(#f1)" height="27.9923" style="stroke: #A80036; stroke-width: 1.5;" width="78" x="296" y="51"/><text fill="#000000" font-family="sans-serif" font-size="14" lengthAdjust="spacingAndGlyphs" textLength="64" x="303" y="69.3128">Last Class</text><rect fill="#FEFECE" filter="url(#f1)" height="27.9923" style="stroke: #A80036; stroke-width: 1.5;" width="78" x="296" y="264.9037"/><text fill="#000000" font-family="sans-serif" font-size="14" lengthAdjust="spacingAndGlyphs" textLength="64" x="303" y="283.2165">Last Class</text><rect fill="#FFFFFF" filter="url(#f1)" height="134.9261" style="stroke: #A80036; stroke-width: 1.0;" width="10" x="94" y="111.9923"/><rect fill="#FFFFFF" filter="url(#f1)" height="80.9557" style="stroke: #A80036; stroke-width: 1.0;" width="10" x="228" y="138.9775"/><rect fill="#FFFFFF" filter="url(#f1)" height="26.9852" style="stroke: #A80036; stroke-width: 1.0;" width="10" x="332" y="165.9628"/><polygon fill="#A80036" points="82,107.9923,92,111.9923,82,115.9923,86,111.9923" style="stroke: #A80036; stroke-width: 1.0;"/><line style="stroke: #A80036; stroke-width: 1.0;" x1="26" x2="88" y1="111.9923" y2="111.9923"/><text fill="#000000" font-family="sans-serif" font-size="13" lengthAdjust="spacingAndGlyphs" textLength="49" x="33" y="108.4909">DoWork</text><polygon fill="#A80036" points="216,134.9775,226,138.9775,216,142.9775,220,138.9775" style="stroke: #A80036; stroke-width: 1.0;"/><line style="stroke: #A80036; stroke-width: 1.0;" x1="104" x2="222" y1="138.9775" y2="138.9775"/><text fill="#000000" font-family="sans-serif" font-size="13" lengthAdjust="spacingAndGlyphs" textLength="93" x="111" y="135.4761">Create Request</text><polygon fill="#A80036" points="320,161.9628,330,165.9628,320,169.9628,324,165.9628" style="stroke: #A80036; stroke-width: 1.0;"/><line style="stroke: #A80036; stroke-width: 1.0;" x1="238" x2="326" y1="165.9628" y2="165.9628"/><text fill="#000000" font-family="sans-serif" font-size="13" lengthAdjust="spacingAndGlyphs" textLength="49" x="245" y="162.4613">DoWork</text><polygon fill="#A80036" points="249,188.948,239,192.948,249,196.948,245,192.948" style="stroke: #A80036; stroke-width: 1.0;"/><line style="stroke: #A80036; stroke-width: 1.0; stroke-dasharray: 2.0,2.0;" x1="243" x2="336" y1="192.948" y2="192.948"/><text fill="#000000" font-family="sans-serif" font-size="13" lengthAdjust="spacingAndGlyphs" textLength="64" x="255" y="189.4465">WorkDone</text><line style="stroke: #A80036; stroke-width: 2.0;" x1="328" x2="346" y1="183.948" y2="201.948"/><line style="stroke: #A80036; stroke-width: 2.0;" x1="328" x2="346" y1="201.948" y2="183.948"/><polygon fill="#A80036" points="115,215.9332,105,219.9332,115,223.9332,111,219.9332" style="stroke: #A80036; stroke-width: 1.0;"/><line style="stroke: #A80036; stroke-width: 1.0; stroke-dasharray: 2.0,2.0;" x1="109" x2="232" y1="219.9332" y2="219.9332"/><text fill="#000000" font-family="sans-serif" font-size="13" lengthAdjust="spacingAndGlyphs" textLength="100" x="121" y="216.4318">Request Created</text><polygon fill="#A80036" points="37,242.9185,27,246.9185,37,250.9185,33,246.9185" style="stroke: #A80036; stroke-width: 1.0;"/><line style="stroke: #A80036; stroke-width: 1.0; stroke-dasharray: 2.0,2.0;" x1="31" x2="98" y1="246.9185" y2="246.9185"/><text fill="#000000" font-family="sans-serif" font-size="13" lengthAdjust="spacingAndGlyphs" textLength="33" x="43" y="243.417">Done</text></g></svg>