<?xml version="1.0" encoding="UTF-8" standalone="yes"?><svg xmlns="http://www.w3.org/2000/svg" xmlns:xlink="http://www.w3.org/1999/xlink" height="191px" style="width:367px;height:191px;" version="1.1" viewBox="0 0 367 191" width="367px"><defs><filter height="300%" id="f1" width="300%" x="-1" y="-1"><feGaussianBlur result="blurOut" stdDeviation="2.0"/><feColorMatrix in="blurOut" result="blurOut2" type="matrix" values="0 0 0 0 0 0 0 0 0 0 0 0 0 0 0 0 0 0 .4 0"/><feOffset dx="4.0" dy="4.0" in="blurOut2" result="blurOut3"/><feBlend in="SourceGraphic" in2="blurOut3" mode="normal"/></filter></defs><g><rect fill="#FEFECE" filter="url(#f1)" height="48" style="stroke: #A80036; stroke-width: 1.5;" width="52" x="153" y="8"/><ellipse cx="168" cy="24" fill="#ADD1B2" rx="11" ry="11" style="stroke: #A80036; stroke-width: 1.0;"/><path d="M170.7656,19.875 Q170.9219,19.6563 171.1094,19.5469 Q171.2969,19.4375 171.5156,19.4375 Q171.8906,19.4375 172.125,19.6953 Q172.3594,19.9531 172.3594,20.5625 L172.3594,22.0156 Q172.3594,22.625 172.125,22.8906 Q171.8906,23.1563 171.5156,23.1563 Q171.1719,23.1563 170.9688,22.9531 Q170.7656,22.7656 170.6563,22.25 Q170.6094,21.8906 170.4219,21.7031 Q170.0938,21.3281 169.4844,21.1094 Q168.875,20.8906 168.25,20.8906 Q167.4844,20.8906 166.8516,21.2188 Q166.2188,21.5469 165.7266,22.2969 Q165.2344,23.0469 165.2344,24.0781 L165.2344,25.1719 Q165.2344,26.4063 166.125,27.2266 Q167.0156,28.0469 168.6094,28.0469 Q169.5469,28.0469 170.2031,27.7969 Q170.5938,27.6406 171.0156,27.2031 Q171.2813,26.9375 171.4297,26.8594 Q171.5781,26.7813 171.7813,26.7813 Q172.1094,26.7813 172.3672,27.0391 Q172.625,27.2969 172.625,27.6406 Q172.625,27.9844 172.2813,28.3906 Q171.7813,28.9688 170.9844,29.2969 Q169.9063,29.75 168.6094,29.75 Q167.0938,29.75 165.8906,29.125 Q164.9063,28.625 164.2188,27.5547 Q163.5313,26.4844 163.5313,25.2031 L163.5313,24.0469 Q163.5313,22.7188 164.1484,21.5703 Q164.7656,20.4219 165.8594,19.8047 Q166.9531,19.1875 168.1875,19.1875 Q168.9219,19.1875 169.5703,19.3516 Q170.2188,19.5156 170.7656,19.875 Z "/><text fill="#000000" font-family="sans-serif" font-size="12" lengthAdjust="spacingAndGlyphs" textLength="20" x="182" y="28.9102">Car</text><line style="stroke: #A80036; stroke-width: 1.5;" x1="154" x2="204" y1="40" y2="40"/><line style="stroke: #A80036; stroke-width: 1.5;" x1="154" x2="204" y1="48" y2="48"/><rect fill="#FEFECE" filter="url(#f1)" height="48" style="stroke: #A80036; stroke-width: 1.5;" width="64" x="6" y="8"/><ellipse cx="21" cy="24" fill="#ADD1B2" rx="11" ry="11" style="stroke: #A80036; stroke-width: 1.0;"/><path d="M23.7656,19.875 Q23.9219,19.6563 24.1094,19.5469 Q24.2969,19.4375 24.5156,19.4375 Q24.8906,19.4375 25.125,19.6953 Q25.3594,19.9531 25.3594,20.5625 L25.3594,22.0156 Q25.3594,22.625 25.125,22.8906 Q24.8906,23.1563 24.5156,23.1563 Q24.1719,23.1563 23.9688,22.9531 Q23.7656,22.7656 23.6563,22.25 Q23.6094,21.8906 23.4219,21.7031 Q23.0938,21.3281 22.4844,21.1094 Q21.875,20.8906 21.25,20.8906 Q20.4844,20.8906 19.8516,21.2188 Q19.2188,21.5469 18.7266,22.2969 Q18.2344,23.0469 18.2344,24.0781 L18.2344,25.1719 Q18.2344,26.4063 19.125,27.2266 Q20.0156,28.0469 21.6094,28.0469 Q22.5469,28.0469 23.2031,27.7969 Q23.5938,27.6406 24.0156,27.2031 Q24.2813,26.9375 24.4297,26.8594 Q24.5781,26.7813 24.7813,26.7813 Q25.1094,26.7813 25.3672,27.0391 Q25.625,27.2969 25.625,27.6406 Q25.625,27.9844 25.2813,28.3906 Q24.7813,28.9688 23.9844,29.2969 Q22.9063,29.75 21.6094,29.75 Q20.0938,29.75 18.8906,29.125 Q17.9063,28.625 17.2188,27.5547 Q16.5313,26.4844 16.5313,25.2031 L16.5313,24.0469 Q16.5313,22.7188 17.1484,21.5703 Q17.7656,20.4219 18.8594,19.8047 Q19.9531,19.1875 21.1875,19.1875 Q21.9219,19.1875 22.5703,19.3516 Q23.2188,19.5156 23.7656,19.875 Z "/><text fill="#000000" font-family="sans-serif" font-size="12" lengthAdjust="spacingAndGlyphs" textLength="32" x="35" y="28.9102">Driver</text><line style="stroke: #A80036; stroke-width: 1.5;" x1="7" x2="69" y1="40" y2="40"/><line style="stroke: #A80036; stroke-width: 1.5;" x1="7" x2="69" y1="48" y2="48"/><rect fill="#FEFECE" filter="url(#f1)" height="48" style="stroke: #A80036; stroke-width: 1.5;" width="67" x="291.5" y="8"/><ellipse cx="306.5" cy="24" fill="#ADD1B2" rx="11" ry="11" style="stroke: #A80036; stroke-width: 1.0;"/><path d="M309.2656,19.875 Q309.4219,19.6563 309.6094,19.5469 Q309.7969,19.4375 310.0156,19.4375 Q310.3906,19.4375 310.625,19.6953 Q310.8594,19.9531 310.8594,20.5625 L310.8594,22.0156 Q310.8594,22.625 310.625,22.8906 Q310.3906,23.1563 310.0156,23.1563 Q309.6719,23.1563 309.4688,22.9531 Q309.2656,22.7656 309.1563,22.25 Q309.1094,21.8906 308.9219,21.7031 Q308.5938,21.3281 307.9844,21.1094 Q307.375,20.8906 306.75,20.8906 Q305.9844,20.8906 305.3516,21.2188 Q304.7188,21.5469 304.2266,22.2969 Q303.7344,23.0469 303.7344,24.0781 L303.7344,25.1719 Q303.7344,26.4063 304.625,27.2266 Q305.5156,28.0469 307.1094,28.0469 Q308.0469,28.0469 308.7031,27.7969 Q309.0938,27.6406 309.5156,27.2031 Q309.7813,26.9375 309.9297,26.8594 Q310.0781,26.7813 310.2813,26.7813 Q310.6094,26.7813 310.8672,27.0391 Q311.125,27.2969 311.125,27.6406 Q311.125,27.9844 310.7813,28.3906 Q310.2813,28.9688 309.4844,29.2969 Q308.4063,29.75 307.1094,29.75 Q305.5938,29.75 304.3906,29.125 Q303.4063,28.625 302.7188,27.5547 Q302.0313,26.4844 302.0313,25.2031 L302.0313,24.0469 Q302.0313,22.7188 302.6484,21.5703 Q303.2656,20.4219 304.3594,19.8047 Q305.4531,19.1875 306.6875,19.1875 Q307.4219,19.1875 308.0703,19.3516 Q308.7188,19.5156 309.2656,19.875 Z "/><text fill="#000000" font-family="sans-serif" font-size="12" lengthAdjust="spacingAndGlyphs" textLength="35" x="320.5" y="28.9102">Wheel</text><line style="stroke: #A80036; stroke-width: 1.5;" x1="292.5" x2="357.5" y1="40" y2="40"/><line style="stroke: #A80036; stroke-width: 1.5;" x1="292.5" x2="357.5" y1="48" y2="48"/><rect fill="#FEFECE" filter="url(#f1)" height="48" style="stroke: #A80036; stroke-width: 1.5;" width="72" x="143" y="134"/><ellipse cx="158" cy="150" fill="#ADD1B2" rx="11" ry="11" style="stroke: #A80036; stroke-width: 1.0;"/><path d="M160.7656,145.875 Q160.9219,145.6563 161.1094,145.5469 Q161.2969,145.4375 161.5156,145.4375 Q161.8906,145.4375 162.125,145.6953 Q162.3594,145.9531 162.3594,146.5625 L162.3594,148.0156 Q162.3594,148.625 162.125,148.8906 Q161.8906,149.1563 161.5156,149.1563 Q161.1719,149.1563 160.9688,148.9531 Q160.7656,148.7656 160.6563,148.25 Q160.6094,147.8906 160.4219,147.7031 Q160.0938,147.3281 159.4844,147.1094 Q158.875,146.8906 158.25,146.8906 Q157.4844,146.8906 156.8516,147.2188 Q156.2188,147.5469 155.7266,148.2969 Q155.2344,149.0469 155.2344,150.0781 L155.2344,151.1719 Q155.2344,152.4063 156.125,153.2266 Q157.0156,154.0469 158.6094,154.0469 Q159.5469,154.0469 160.2031,153.7969 Q160.5938,153.6406 161.0156,153.2031 Q161.2813,152.9375 161.4297,152.8594 Q161.5781,152.7813 161.7813,152.7813 Q162.1094,152.7813 162.3672,153.0391 Q162.625,153.2969 162.625,153.6406 Q162.625,153.9844 162.2813,154.3906 Q161.7813,154.9688 160.9844,155.2969 Q159.9063,155.75 158.6094,155.75 Q157.0938,155.75 155.8906,155.125 Q154.9063,154.625 154.2188,153.5547 Q153.5313,152.4844 153.5313,151.2031 L153.5313,150.0469 Q153.5313,148.7188 154.1484,147.5703 Q154.7656,146.4219 155.8594,145.8047 Q156.9531,145.1875 158.1875,145.1875 Q158.9219,145.1875 159.5703,145.3516 Q160.2188,145.5156 160.7656,145.875 Z "/><text fill="#000000" font-family="sans-serif" font-size="12" lengthAdjust="spacingAndGlyphs" textLength="40" x="172" y="154.9102">Person</text><line style="stroke: #A80036; stroke-width: 1.5;" x1="144" x2="214" y1="166" y2="166"/><line style="stroke: #A80036; stroke-width: 1.5;" x1="144" x2="214" y1="174" y2="174"/><path d="M70.3482,32 C95.3901,32 129.622,32 152.925,32 " fill="none" style="stroke: #A80036; stroke-width: 1.0;"/><text fill="#000000" font-family="sans-serif" font-size="13" lengthAdjust="spacingAndGlyphs" textLength="33" x="88.5" y="25.4951">drives</text><polygon fill="#000000" points="124.5,18.6758,130.5,21.6758,124.5,24.6758,124.5,18.6758" style="stroke: #000000; stroke-width: 1.0;"/><path d="M218.153,32 C241.021,32 269.579,32 291.416,32 " fill="none" style="stroke: #A80036; stroke-width: 1.0;"/><polygon fill="#A80036" points="205.102,32,211.102,36,217.102,32,211.102,28,205.102,32" style="stroke: #A80036; stroke-width: 1.0;"/><text fill="#000000" font-family="sans-serif" font-size="13" lengthAdjust="spacingAndGlyphs" textLength="37" x="223.25" y="25.4951">have 4</text><polygon fill="#000000" points="263.25,18.6758,269.25,21.6758,263.25,24.6758,263.25,18.6758" style="stroke: #000000; stroke-width: 1.0;"/><path d="M179,56.033 C179,78.165 179,111.4383 179,133.6697 " fill="none" style="stroke: #A80036; stroke-width: 1.0;"/><polygon fill="#000000" points="190.5,97,193.5,91,196.5,97,190.5,97" style="stroke: #000000; stroke-width: 1.0;"/><text fill="#000000" font-family="sans-serif" font-size="13" lengthAdjust="spacingAndGlyphs" textLength="30" x="180" y="113.4951">owns</text></g></svg>