<?xml version="1.0" encoding="UTF-8" standalone="yes"?><svg xmlns="http://www.w3.org/2000/svg" xmlns:xlink="http://www.w3.org/1999/xlink" height="189px" style="width:376px;height:189px;" version="1.1" viewBox="0 0 376 189" width="376px"><defs><filter height="300%" id="f1" width="300%" x="-1" y="-1"><feGaussianBlur result="blurOut" stdDeviation="2.0"/><feColorMatrix in="blurOut" result="blurOut2" type="matrix" values="0 0 0 0 0 0 0 0 0 0 0 0 0 0 0 0 0 0 .4 0"/><feOffset dx="4.0" dy="4.0" in="blurOut2" result="blurOut3"/><feBlend in="SourceGraphic" in2="blurOut3" mode="normal"/></filter></defs><g><rect fill="#FEFECE" filter="url(#f1)" height="48" style="stroke: #A80036; stroke-width: 1.5;" width="52" x="157.25" y="8"/><ellipse cx="172.25" cy="24" fill="#ADD1B2" rx="11" ry="11" style="stroke: #A80036; stroke-width: 1.0;"/><path d="M175.2188,29.6406 Q174.6406,29.9375 174,30.0859 Q173.3594,30.2344 172.6563,30.2344 Q170.1563,30.2344 168.8359,28.5859 Q167.5156,26.9375 167.5156,23.8125 Q167.5156,20.6875 168.8359,19.0313 Q170.1563,17.375 172.6563,17.375 Q173.3594,17.375 174.0078,17.5313 Q174.6563,17.6875 175.2188,17.9844 L175.2188,20.7031 Q174.5938,20.125 174,19.8516 Q173.4063,19.5781 172.7813,19.5781 Q171.4375,19.5781 170.75,20.6484 Q170.0625,21.7188 170.0625,23.8125 Q170.0625,25.9063 170.75,26.9766 Q171.4375,28.0469 172.7813,28.0469 Q173.4063,28.0469 174,27.7734 Q174.5938,27.5 175.2188,26.9219 L175.2188,29.6406 Z "/><text fill="#000000" font-family="sans-serif" font-size="12" lengthAdjust="spacingAndGlyphs" textLength="20" x="186.25" y="27.7">Car</text><line style="stroke: #A80036; stroke-width: 1.5;" x1="158.25" x2="208.25" y1="40" y2="40"/><line style="stroke: #A80036; stroke-width: 1.5;" x1="158.25" x2="208.25" y1="48" y2="48"/><rect fill="#FEFECE" filter="url(#f1)" height="48" style="stroke: #A80036; stroke-width: 1.5;" width="65" x="6" y="8"/><ellipse cx="21" cy="24" fill="#ADD1B2" rx="11" ry="11" style="stroke: #A80036; stroke-width: 1.0;"/><path d="M23.9688,29.6406 Q23.3906,29.9375 22.75,30.0859 Q22.1094,30.2344 21.4063,30.2344 Q18.9063,30.2344 17.5859,28.5859 Q16.2656,26.9375 16.2656,23.8125 Q16.2656,20.6875 17.5859,19.0313 Q18.9063,17.375 21.4063,17.375 Q22.1094,17.375 22.7578,17.5313 Q23.4063,17.6875 23.9688,17.9844 L23.9688,20.7031 Q23.3438,20.125 22.75,19.8516 Q22.1563,19.5781 21.5313,19.5781 Q20.1875,19.5781 19.5,20.6484 Q18.8125,21.7188 18.8125,23.8125 Q18.8125,25.9063 19.5,26.9766 Q20.1875,28.0469 21.5313,28.0469 Q22.1563,28.0469 22.75,27.7734 Q23.3438,27.5 23.9688,26.9219 L23.9688,29.6406 Z "/><text fill="#000000" font-family="sans-serif" font-size="12" lengthAdjust="spacingAndGlyphs" textLength="33" x="35" y="27.7">Driver</text><line style="stroke: #A80036; stroke-width: 1.5;" x1="7" x2="70" y1="40" y2="40"/><line style="stroke: #A80036; stroke-width: 1.5;" x1="7" x2="70" y1="48" y2="48"/><rect fill="#FEFECE" filter="url(#f1)" height="48" style="stroke: #A80036; stroke-width: 1.5;" width="67" x="300" y="8"/><ellipse cx="315" cy="24" fill="#ADD1B2" rx="11" ry="11" style="stroke: #A80036; stroke-width: 1.0;"/><path d="M317.9688,29.6406 Q317.3906,29.9375 316.75,30.0859 Q316.1094,30.2344 315.4063,30.2344 Q312.9063,30.2344 311.5859,28.5859 Q310.2656,26.9375 310.2656,23.8125 Q310.2656,20.6875 311.5859,19.0313 Q312.9063,17.375 315.4063,17.375 Q316.1094,17.375 316.7578,17.5313 Q317.4063,17.6875 317.9688,17.9844 L317.9688,20.7031 Q317.3438,20.125 316.75,19.8516 Q316.1563,19.5781 315.5313,19.5781 Q314.1875,19.5781 313.5,20.6484 Q312.8125,21.7188 312.8125,23.8125 Q312.8125,25.9063 313.5,26.9766 Q314.1875,28.0469 315.5313,28.0469 Q316.1563,28.0469 316.75,27.7734 Q317.3438,27.5 317.9688,26.9219 L317.9688,29.6406 Z "/><text fill="#000000" font-family="sans-serif" font-size="12" lengthAdjust="spacingAndGlyphs" textLength="35" x="329" y="27.7">Wheel</text><line style="stroke: #A80036; stroke-width: 1.5;" x1="301" x2="366" y1="40" y2="40"/><line style="stroke: #A80036; stroke-width: 1.5;" x1="301" x2="366" y1="48" y2="48"/><rect fill="#FEFECE" filter="url(#f1)" height="48" style="stroke: #A80036; stroke-width: 1.5;" width="71" x="148" y="132"/><ellipse cx="163" cy="148" fill="#ADD1B2" rx="11" ry="11" style="stroke: #A80036; stroke-width: 1.0;"/><path d="M165.9688,153.6406 Q165.3906,153.9375 164.75,154.0859 Q164.1094,154.2344 163.4063,154.2344 Q160.9063,154.2344 159.5859,152.5859 Q158.2656,150.9375 158.2656,147.8125 Q158.2656,144.6875 159.5859,143.0313 Q160.9063,141.375 163.4063,141.375 Q164.1094,141.375 164.7578,141.5313 Q165.4063,141.6875 165.9688,141.9844 L165.9688,144.7031 Q165.3438,144.125 164.75,143.8516 Q164.1563,143.5781 163.5313,143.5781 Q162.1875,143.5781 161.5,144.6484 Q160.8125,145.7188 160.8125,147.8125 Q160.8125,149.9063 161.5,150.9766 Q162.1875,152.0469 163.5313,152.0469 Q164.1563,152.0469 164.75,151.7734 Q165.3438,151.5 165.9688,150.9219 L165.9688,153.6406 Z "/><text fill="#000000" font-family="sans-serif" font-size="12" lengthAdjust="spacingAndGlyphs" textLength="39" x="177" y="151.7">Person</text><line style="stroke: #A80036; stroke-width: 1.5;" x1="149" x2="218" y1="164" y2="164"/><line style="stroke: #A80036; stroke-width: 1.5;" x1="149" x2="218" y1="172" y2="172"/><path d="M70.7908,32 C96.8421,32 132.904,32 157.102,32 " fill="none" style="stroke: #A80036; stroke-width: 1.0;"/><text fill="#000000" font-family="sans-serif" font-size="13" lengthAdjust="spacingAndGlyphs" textLength="36" x="88.75" y="25.4986">drives</text><polygon fill="#000000" points="127.75,19.9926,133.75,22.9926,127.75,25.9926,127.75,19.9926" style="stroke: #000000; stroke-width: 1.0;"/><path d="M222.67,32 C246.665,32 276.983,32 299.803,32 " fill="none" style="stroke: #A80036; stroke-width: 1.0;"/><polygon fill="#A80036" points="209.378,32,215.378,36,221.378,32,215.378,28,209.378,32" style="stroke: #A80036; stroke-width: 1.0;"/><text fill="#000000" font-family="sans-serif" font-size="13" lengthAdjust="spacingAndGlyphs" textLength="40" x="227.5" y="25.4986">have 4</text><polygon fill="#000000" points="270.5,19.9926,276.5,22.9926,270.5,25.9926,270.5,19.9926" style="stroke: #000000; stroke-width: 1.0;"/><path d="M183.25,56.234 C183.25,77.943 183.25,110.1716 183.25,131.8521 " fill="none" style="stroke: #A80036; stroke-width: 1.0;"/><polygon fill="#000000" points="195.25,97.5,198.25,91.5,201.25,97.5,195.25,97.5" style="stroke: #000000; stroke-width: 1.0;"/><text fill="#000000" font-family="sans-serif" font-size="13" lengthAdjust="spacingAndGlyphs" textLength="31" x="184.25" y="110.9986">owns</text></g></svg>