<?xml version="1.0" encoding="UTF-8" standalone="yes"?><svg xmlns="http://www.w3.org/2000/svg" xmlns:xlink="http://www.w3.org/1999/xlink" height="363px" style="width:379px;height:363px;" version="1.1" viewBox="0 0 379 363" width="379px"><defs><filter height="300%" id="f1" width="300%" x="-1" y="-1"><feGaussianBlur result="blurOut" stdDeviation="2.0"/><feColorMatrix in="blurOut" result="blurOut2" type="matrix" values="0 0 0 0 0 0 0 0 0 0 0 0 0 0 0 0 0 0 .4 0"/><feOffset dx="4.0" dy="4.0" in="blurOut2" result="blurOut3"/><feBlend in="SourceGraphic" in2="blurOut3" mode="normal"/></filter></defs><g><rect fill="#FFFFFF" filter="url(#f1)" height="144.7437" style="stroke: #A80036; stroke-width: 1.0;" width="10" x="91.5" y="116.0986"/><rect fill="#FFFFFF" filter="url(#f1)" height="86.8462" style="stroke: #A80036; stroke-width: 1.0;" width="10" x="222.5" y="145.0474"/><rect fill="#FFFFFF" filter="url(#f1)" height="28.9487" style="stroke: #A80036; stroke-width: 1.0;" width="10" x="327" y="173.9961"/><line style="stroke: #A80036; stroke-width: 1.0; stroke-dasharray: 5.0,5.0;" x1="25" x2="25" y1="86.0986" y2="279.791"/><line style="stroke: #A80036; stroke-width: 1.0; stroke-dasharray: 5.0,5.0;" x1="96" x2="96" y1="86.0986" y2="279.791"/><line style="stroke: #A80036; stroke-width: 1.0; stroke-dasharray: 5.0,5.0;" x1="227" x2="227" y1="86.0986" y2="279.791"/><line style="stroke: #A80036; stroke-width: 1.0; stroke-dasharray: 5.0,5.0;" x1="332" x2="332" y1="86.0986" y2="279.791"/><text fill="#000000" font-family="sans-serif" font-size="14" lengthAdjust="spacingAndGlyphs" textLength="29" x="8" y="83.3608">User</text><ellipse cx="25.5" cy="13" fill="#FEFECE" filter="url(#f1)" rx="8" ry="8" style="stroke: #A80036; stroke-width: 2.0;"/><path d="M25.5,21 L25.5,48 M12.5,29 L38.5,29 M25.5,48 L12.5,63 M25.5,48 L38.5,63 " fill="#FEFECE" filter="url(#f1)" style="stroke: #A80036; stroke-width: 2.0;"/><text fill="#000000" font-family="sans-serif" font-size="14" lengthAdjust="spacingAndGlyphs" textLength="29" x="8" y="292.1519">User</text><ellipse cx="25.5" cy="304.8896" fill="#FEFECE" filter="url(#f1)" rx="8" ry="8" style="stroke: #A80036; stroke-width: 2.0;"/><path d="M25.5,312.8896 L25.5,339.8896 M12.5,320.8896 L38.5,320.8896 M25.5,339.8896 L12.5,354.8896 M25.5,339.8896 L38.5,354.8896 " fill="#FEFECE" filter="url(#f1)" style="stroke: #A80036; stroke-width: 2.0;"/><rect fill="#FEFECE" filter="url(#f1)" height="30.0986" style="stroke: #A80036; stroke-width: 1.5;" width="81" x="54" y="51"/><text fill="#000000" font-family="sans-serif" font-size="14" lengthAdjust="spacingAndGlyphs" textLength="67" x="61" y="71.3608">First Class</text><rect fill="#FEFECE" filter="url(#f1)" height="30.0986" style="stroke: #A80036; stroke-width: 1.5;" width="81" x="54" y="278.791"/><text fill="#000000" font-family="sans-serif" font-size="14" lengthAdjust="spacingAndGlyphs" textLength="67" x="61" y="299.1519">First Class</text><rect fill="#FEFECE" filter="url(#f1)" height="30.0986" style="stroke: #A80036; stroke-width: 1.5;" width="101" x="175" y="51"/><text fill="#000000" font-family="sans-serif" font-size="14" lengthAdjust="spacingAndGlyphs" textLength="87" x="182" y="71.3608">Second Class</text><rect fill="#FEFECE" filter="url(#f1)" height="30.0986" style="stroke: #A80036; stroke-width: 1.5;" width="101" x="175" y="278.791"/><text fill="#000000" font-family="sans-serif" font-size="14" lengthAdjust="spacingAndGlyphs" textLength="87" x="182" y="299.1519">Second Class</text><rect fill="#FEFECE" filter="url(#f1)" height="30.0986" style="stroke: #A80036; stroke-width: 1.5;" width="80" x="290" y="51"/><text fill="#000000" font-family="sans-serif" font-size="14" lengthAdjust="spacingAndGlyphs" textLength="66" x="297" y="71.3608">Last Class</text><rect fill="#FEFECE" filter="url(#f1)" height="30.0986" style="stroke: #A80036; stroke-width: 1.5;" width="80" x="290" y="278.791"/><text fill="#000000" font-family="sans-serif" font-size="14" lengthAdjust="spacingAndGlyphs" textLength="66" x="297" y="299.1519">Last Class</text><rect fill="#FFFFFF" filter="url(#f1)" height="144.7437" style="stroke: #A80036; stroke-width: 1.0;" width="10" x="91.5" y="116.0986"/><rect fill="#FFFFFF" filter="url(#f1)" height="86.8462" style="stroke: #A80036; stroke-width: 1.0;" width="10" x="222.5" y="145.0474"/><rect fill="#FFFFFF" filter="url(#f1)" height="28.9487" style="stroke: #A80036; stroke-width: 1.0;" width="10" x="327" y="173.9961"/><polygon fill="#A80036" points="79.5,112.0986,89.5,116.0986,79.5,120.0986,83.5,116.0986" style="stroke: #A80036; stroke-width: 1.0;"/><line style="stroke: #A80036; stroke-width: 1.0;" x1="25.5" x2="85.5" y1="116.0986" y2="116.0986"/><text fill="#000000" font-family="sans-serif" font-size="13" lengthAdjust="spacingAndGlyphs" textLength="47" x="32.5" y="112.5051">DoWork</text><polygon fill="#A80036" points="210.5,141.0474,220.5,145.0474,210.5,149.0474,214.5,145.0474" style="stroke: #A80036; stroke-width: 1.0;"/><line style="stroke: #A80036; stroke-width: 1.0;" x1="101.5" x2="216.5" y1="145.0474" y2="145.0474"/><text fill="#000000" font-family="sans-serif" font-size="13" lengthAdjust="spacingAndGlyphs" textLength="90" x="108.5" y="141.4539">Create Request</text><polygon fill="#A80036" points="315,169.9961,325,173.9961,315,177.9961,319,173.9961" style="stroke: #A80036; stroke-width: 1.0;"/><line style="stroke: #A80036; stroke-width: 1.0;" x1="232.5" x2="321" y1="173.9961" y2="173.9961"/><text fill="#000000" font-family="sans-serif" font-size="13" lengthAdjust="spacingAndGlyphs" textLength="47" x="239.5" y="170.4026">DoWork</text><polygon fill="#A80036" points="243.5,198.9448,233.5,202.9448,243.5,206.9448,239.5,202.9448" style="stroke: #A80036; stroke-width: 1.0;"/><line style="stroke: #A80036; stroke-width: 1.0; stroke-dasharray: 2.0,2.0;" x1="237.5" x2="331" y1="202.9448" y2="202.9448"/><text fill="#000000" font-family="sans-serif" font-size="13" lengthAdjust="spacingAndGlyphs" textLength="61" x="249.5" y="199.3513">WorkDone</text><line style="stroke: #A80036; stroke-width: 2.0;" x1="323" x2="341" y1="193.9448" y2="211.9448"/><line style="stroke: #A80036; stroke-width: 2.0;" x1="323" x2="341" y1="211.9448" y2="193.9448"/><polygon fill="#A80036" points="112.5,227.8936,102.5,231.8936,112.5,235.8936,108.5,231.8936" style="stroke: #A80036; stroke-width: 1.0;"/><line style="stroke: #A80036; stroke-width: 1.0; stroke-dasharray: 2.0,2.0;" x1="106.5" x2="226.5" y1="231.8936" y2="231.8936"/><text fill="#000000" font-family="sans-serif" font-size="13" lengthAdjust="spacingAndGlyphs" textLength="97" x="118.5" y="228.3">Request Created</text><polygon fill="#A80036" points="36.5,256.8423,26.5,260.8423,36.5,264.8423,32.5,260.8423" style="stroke: #A80036; stroke-width: 1.0;"/><line style="stroke: #A80036; stroke-width: 1.0; stroke-dasharray: 2.0,2.0;" x1="30.5" x2="95.5" y1="260.8423" y2="260.8423"/><text fill="#000000" font-family="sans-serif" font-size="13" lengthAdjust="spacingAndGlyphs" textLength="30" x="42.5" y="257.2488">Done</text></g></svg>