<?xml version="1.0" encoding="UTF-8" standalone="yes"?><svg xmlns="http://www.w3.org/2000/svg" xmlns:xlink="http://www.w3.org/1999/xlink" height="189px" style="width:367px;height:189px;" version="1.1" viewBox="0 0 367 189" width="367px"><defs><filter height="300%" id="f1" width="300%" x="-1" y="-1"><feGaussianBlur result="blurOut" stdDeviation="2.0"/><feColorMatrix in="blurOut" result="blurOut2" type="matrix" values="0 0 0 0 0 0 0 0 0 0 0 0 0 0 0 0 0 0 .4 0"/><feOffset dx="4.0" dy="4.0" in="blurOut2" result="blurOut3"/><feBlend in="SourceGraphic" in2="blurOut3" mode="normal"/></filter></defs><g><rect fill="#FEFECE" filter="url(#f1)" height="48" style="stroke: #A80036; stroke-width: 1.5;" width="52" x="153" y="8"/><ellipse cx="168" cy="24" fill="#ADD1B2" rx="11" ry="11" style="stroke: #A80036; stroke-width: 1.0;"/><path d="M166.1563,23.8438 Q166.1563,25.7188 166.7344,26.7266 Q167.3125,27.7344 168.4688,27.7344 Q168.8438,27.7344 169.1484,27.5859 Q169.4531,27.4375 169.7031,27.1719 Q169.9531,26.9063 170.1406,26.5313 Q170.3281,26.1563 170.4688,25.7188 L172.7344,26.1406 Q172.4688,26.9688 172.0859,27.6172 Q171.7031,28.2656 171.1719,28.7188 Q170.6406,29.1719 169.9688,29.4219 Q169.2969,29.6719 168.4531,29.6719 Q167.1875,29.6719 166.2813,29.25 Q165.375,28.8281 164.7969,28.0625 Q164.2188,27.2969 163.9453,26.2266 Q163.6719,25.1563 163.6719,23.8438 Q163.6719,22.4531 163.9531,21.3906 Q164.2344,20.3281 164.8203,19.6016 Q165.4063,18.875 166.2891,18.5 Q167.1719,18.125 168.375,18.125 Q169.25,18.125 169.9141,18.3672 Q170.5781,18.6094 171.0781,19.0391 Q171.5781,19.4688 171.9297,20.0625 Q172.2813,20.6563 172.5,21.3594 L170.2344,21.9063 Q170.125,21.5 169.9609,21.1641 Q169.7969,20.8281 169.5625,20.5781 Q169.3281,20.3281 169.0391,20.1875 Q168.75,20.0469 168.4063,20.0469 Q167.2813,20.0469 166.7188,21.0078 Q166.1563,21.9688 166.1563,23.8438 Z "/><text fill="#000000" font-family="sans-serif" font-size="12" lengthAdjust="spacingAndGlyphs" textLength="20" x="182" y="28.5527">Car</text><line style="stroke: #A80036; stroke-width: 1.5;" x1="154" x2="204" y1="40" y2="40"/><line style="stroke: #A80036; stroke-width: 1.5;" x1="154" x2="204" y1="48" y2="48"/><rect fill="#FEFECE" filter="url(#f1)" height="48" style="stroke: #A80036; stroke-width: 1.5;" width="64" x="6" y="8"/><ellipse cx="21" cy="24" fill="#ADD1B2" rx="11" ry="11" style="stroke: #A80036; stroke-width: 1.0;"/><path d="M19.1563,23.8438 Q19.1563,25.7188 19.7344,26.7266 Q20.3125,27.7344 21.4688,27.7344 Q21.8438,27.7344 22.1484,27.5859 Q22.4531,27.4375 22.7031,27.1719 Q22.9531,26.9063 23.1406,26.5313 Q23.3281,26.1563 23.4688,25.7188 L25.7344,26.1406 Q25.4688,26.9688 25.0859,27.6172 Q24.7031,28.2656 24.1719,28.7188 Q23.6406,29.1719 22.9688,29.4219 Q22.2969,29.6719 21.4531,29.6719 Q20.1875,29.6719 19.2813,29.25 Q18.375,28.8281 17.7969,28.0625 Q17.2188,27.2969 16.9453,26.2266 Q16.6719,25.1563 16.6719,23.8438 Q16.6719,22.4531 16.9531,21.3906 Q17.2344,20.3281 17.8203,19.6016 Q18.4063,18.875 19.2891,18.5 Q20.1719,18.125 21.375,18.125 Q22.25,18.125 22.9141,18.3672 Q23.5781,18.6094 24.0781,19.0391 Q24.5781,19.4688 24.9297,20.0625 Q25.2813,20.6563 25.5,21.3594 L23.2344,21.9063 Q23.125,21.5 22.9609,21.1641 Q22.7969,20.8281 22.5625,20.5781 Q22.3281,20.3281 22.0391,20.1875 Q21.75,20.0469 21.4063,20.0469 Q20.2813,20.0469 19.7188,21.0078 Q19.1563,21.9688 19.1563,23.8438 Z "/><text fill="#000000" font-family="sans-serif" font-size="12" lengthAdjust="spacingAndGlyphs" textLength="32" x="35" y="28.5527">Driver</text><line style="stroke: #A80036; stroke-width: 1.5;" x1="7" x2="69" y1="40" y2="40"/><line style="stroke: #A80036; stroke-width: 1.5;" x1="7" x2="69" y1="48" y2="48"/><rect fill="#FEFECE" filter="url(#f1)" height="48" style="stroke: #A80036; stroke-width: 1.5;" width="67" x="291.5" y="8"/><ellipse cx="306.5" cy="24" fill="#ADD1B2" rx="11" ry="11" style="stroke: #A80036; stroke-width: 1.0;"/><path d="M304.6563,23.8438 Q304.6563,25.7188 305.2344,26.7266 Q305.8125,27.7344 306.9688,27.7344 Q307.3438,27.7344 307.6484,27.5859 Q307.9531,27.4375 308.2031,27.1719 Q308.4531,26.9063 308.6406,26.5313 Q308.8281,26.1563 308.9688,25.7188 L311.2344,26.1406 Q310.9688,26.9688 310.5859,27.6172 Q310.2031,28.2656 309.6719,28.7188 Q309.1406,29.1719 308.4688,29.4219 Q307.7969,29.6719 306.9531,29.6719 Q305.6875,29.6719 304.7813,29.25 Q303.875,28.8281 303.2969,28.0625 Q302.7188,27.2969 302.4453,26.2266 Q302.1719,25.1563 302.1719,23.8438 Q302.1719,22.4531 302.4531,21.3906 Q302.7344,20.3281 303.3203,19.6016 Q303.9063,18.875 304.7891,18.5 Q305.6719,18.125 306.875,18.125 Q307.75,18.125 308.4141,18.3672 Q309.0781,18.6094 309.5781,19.0391 Q310.0781,19.4688 310.4297,20.0625 Q310.7813,20.6563 311,21.3594 L308.7344,21.9063 Q308.625,21.5 308.4609,21.1641 Q308.2969,20.8281 308.0625,20.5781 Q307.8281,20.3281 307.5391,20.1875 Q307.25,20.0469 306.9063,20.0469 Q305.7813,20.0469 305.2188,21.0078 Q304.6563,21.9688 304.6563,23.8438 Z "/><text fill="#000000" font-family="sans-serif" font-size="12" lengthAdjust="spacingAndGlyphs" textLength="35" x="320.5" y="28.5527">Wheel</text><line style="stroke: #A80036; stroke-width: 1.5;" x1="292.5" x2="357.5" y1="40" y2="40"/><line style="stroke: #A80036; stroke-width: 1.5;" x1="292.5" x2="357.5" y1="48" y2="48"/><rect fill="#FEFECE" filter="url(#f1)" height="48" style="stroke: #A80036; stroke-width: 1.5;" width="72" x="143" y="132"/><ellipse cx="158" cy="148" fill="#ADD1B2" rx="11" ry="11" style="stroke: #A80036; stroke-width: 1.0;"/><path d="M156.1563,147.8438 Q156.1563,149.7188 156.7344,150.7266 Q157.3125,151.7344 158.4688,151.7344 Q158.8438,151.7344 159.1484,151.5859 Q159.4531,151.4375 159.7031,151.1719 Q159.9531,150.9063 160.1406,150.5313 Q160.3281,150.1563 160.4688,149.7188 L162.7344,150.1406 Q162.4688,150.9688 162.0859,151.6172 Q161.7031,152.2656 161.1719,152.7188 Q160.6406,153.1719 159.9688,153.4219 Q159.2969,153.6719 158.4531,153.6719 Q157.1875,153.6719 156.2813,153.25 Q155.375,152.8281 154.7969,152.0625 Q154.2188,151.2969 153.9453,150.2266 Q153.6719,149.1563 153.6719,147.8438 Q153.6719,146.4531 153.9531,145.3906 Q154.2344,144.3281 154.8203,143.6016 Q155.4063,142.875 156.2891,142.5 Q157.1719,142.125 158.375,142.125 Q159.25,142.125 159.9141,142.3672 Q160.5781,142.6094 161.0781,143.0391 Q161.5781,143.4688 161.9297,144.0625 Q162.2813,144.6563 162.5,145.3594 L160.2344,145.9063 Q160.125,145.5 159.9609,145.1641 Q159.7969,144.8281 159.5625,144.5781 Q159.3281,144.3281 159.0391,144.1875 Q158.75,144.0469 158.4063,144.0469 Q157.2813,144.0469 156.7188,145.0078 Q156.1563,145.9688 156.1563,147.8438 Z "/><text fill="#000000" font-family="sans-serif" font-size="12" lengthAdjust="spacingAndGlyphs" textLength="40" x="172" y="152.5527">Person</text><line style="stroke: #A80036; stroke-width: 1.5;" x1="144" x2="214" y1="164" y2="164"/><line style="stroke: #A80036; stroke-width: 1.5;" x1="144" x2="214" y1="172" y2="172"/><path d="M70.3482,32 C95.3901,32 129.622,32 152.925,32 " fill="none" style="stroke: #A80036; stroke-width: 1.0;"/><text fill="#000000" font-family="sans-serif" font-size="13" lengthAdjust="spacingAndGlyphs" textLength="33" x="88.5" y="26.4065">drives</text><polygon fill="#000000" points="124.5,19.9744,130.5,22.9744,124.5,25.9744,124.5,19.9744" style="stroke: #000000; stroke-width: 1.0;"/><path d="M218.153,32 C241.021,32 269.579,32 291.416,32 " fill="none" style="stroke: #A80036; stroke-width: 1.0;"/><polygon fill="#A80036" points="205.102,32,211.102,36,217.102,32,211.102,28,205.102,32" style="stroke: #A80036; stroke-width: 1.0;"/><text fill="#000000" font-family="sans-serif" font-size="13" lengthAdjust="spacingAndGlyphs" textLength="37" x="223.25" y="26.4065">have 4</text><polygon fill="#000000" points="263.25,19.9744,269.25,22.9744,263.25,25.9744,263.25,19.9744" style="stroke: #000000; stroke-width: 1.0;"/><path d="M179,56.234 C179,77.943 179,110.1716 179,131.8521 " fill="none" style="stroke: #A80036; stroke-width: 1.0;"/><polygon fill="#000000" points="190.5,97,193.5,91,196.5,97,190.5,97" style="stroke: #000000; stroke-width: 1.0;"/><text fill="#000000" font-family="sans-serif" font-size="13" lengthAdjust="spacingAndGlyphs" textLength="30" x="180" y="112.4065">owns</text></g></svg>