<?xml version="1.0" encoding="UTF-8" standalone="yes"?><svg xmlns="http://www.w3.org/2000/svg" xmlns:xlink="http://www.w3.org/1999/xlink" height="191px" style="width:388px;height:191px;" version="1.1" viewBox="0 0 388 191" width="388px"><defs><filter height="300%" id="f1" width="300%" x="-1" y="-1"><feGaussianBlur result="blurOut" stdDeviation="2.0"/><feColorMatrix in="blurOut" result="blurOut2" type="matrix" values="0 0 0 0 0 0 0 0 0 0 0 0 0 0 0 0 0 0 .4 0"/><feOffset dx="4.0" dy="4.0" in="blurOut2" result="blurOut3"/><feBlend in="SourceGraphic" in2="blurOut3" mode="normal"/></filter></defs><g><rect fill="#FEFECE" filter="url(#f1)" height="48" style="stroke: #A80036; stroke-width: 1.5;" width="53" x="163" y="8"/><ellipse cx="178" cy="24" fill="#ADD1B2" rx="11" ry="11" style="stroke: #A80036; stroke-width: 1.0;"/><path d="M180.9688,29.6406 Q180.3906,29.9375 179.75,30.0859 Q179.1094,30.2344 178.4063,30.2344 Q175.9063,30.2344 174.5859,28.5859 Q173.2656,26.9375 173.2656,23.8125 Q173.2656,20.6875 174.5859,19.0313 Q175.9063,17.375 178.4063,17.375 Q179.1094,17.375 179.7578,17.5313 Q180.4063,17.6875 180.9688,17.9844 L180.9688,20.7031 Q180.3438,20.125 179.75,19.8516 Q179.1563,19.5781 178.5313,19.5781 Q177.1875,19.5781 176.5,20.6484 Q175.8125,21.7188 175.8125,23.8125 Q175.8125,25.9063 176.5,26.9766 Q177.1875,28.0469 178.5313,28.0469 Q179.1563,28.0469 179.75,27.7734 Q180.3438,27.5 180.9688,26.9219 L180.9688,29.6406 Z "/><text fill="#000000" font-family="sans-serif" font-size="12" lengthAdjust="spacingAndGlyphs" textLength="21" x="192" y="28.1543">Car</text><line style="stroke: #A80036; stroke-width: 1.5;" x1="164" x2="215" y1="40" y2="40"/><line style="stroke: #A80036; stroke-width: 1.5;" x1="164" x2="215" y1="48" y2="48"/><rect fill="#FEFECE" filter="url(#f1)" height="48" style="stroke: #A80036; stroke-width: 1.5;" width="68" x="6" y="8"/><ellipse cx="21" cy="24" fill="#ADD1B2" rx="11" ry="11" style="stroke: #A80036; stroke-width: 1.0;"/><path d="M23.9688,29.6406 Q23.3906,29.9375 22.75,30.0859 Q22.1094,30.2344 21.4063,30.2344 Q18.9063,30.2344 17.5859,28.5859 Q16.2656,26.9375 16.2656,23.8125 Q16.2656,20.6875 17.5859,19.0313 Q18.9063,17.375 21.4063,17.375 Q22.1094,17.375 22.7578,17.5313 Q23.4063,17.6875 23.9688,17.9844 L23.9688,20.7031 Q23.3438,20.125 22.75,19.8516 Q22.1563,19.5781 21.5313,19.5781 Q20.1875,19.5781 19.5,20.6484 Q18.8125,21.7188 18.8125,23.8125 Q18.8125,25.9063 19.5,26.9766 Q20.1875,28.0469 21.5313,28.0469 Q22.1563,28.0469 22.75,27.7734 Q23.3438,27.5 23.9688,26.9219 L23.9688,29.6406 Z "/><text fill="#000000" font-family="sans-serif" font-size="12" lengthAdjust="spacingAndGlyphs" textLength="36" x="35" y="28.1543">Driver</text><line style="stroke: #A80036; stroke-width: 1.5;" x1="7" x2="73" y1="40" y2="40"/><line style="stroke: #A80036; stroke-width: 1.5;" x1="7" x2="73" y1="48" y2="48"/><rect fill="#FEFECE" filter="url(#f1)" height="48" style="stroke: #A80036; stroke-width: 1.5;" width="70" x="309" y="8"/><ellipse cx="324" cy="24" fill="#ADD1B2" rx="11" ry="11" style="stroke: #A80036; stroke-width: 1.0;"/><path d="M326.9688,29.6406 Q326.3906,29.9375 325.75,30.0859 Q325.1094,30.2344 324.4063,30.2344 Q321.9063,30.2344 320.5859,28.5859 Q319.2656,26.9375 319.2656,23.8125 Q319.2656,20.6875 320.5859,19.0313 Q321.9063,17.375 324.4063,17.375 Q325.1094,17.375 325.7578,17.5313 Q326.4063,17.6875 326.9688,17.9844 L326.9688,20.7031 Q326.3438,20.125 325.75,19.8516 Q325.1563,19.5781 324.5313,19.5781 Q323.1875,19.5781 322.5,20.6484 Q321.8125,21.7188 321.8125,23.8125 Q321.8125,25.9063 322.5,26.9766 Q323.1875,28.0469 324.5313,28.0469 Q325.1563,28.0469 325.75,27.7734 Q326.3438,27.5 326.9688,26.9219 L326.9688,29.6406 Z "/><text fill="#000000" font-family="sans-serif" font-size="12" lengthAdjust="spacingAndGlyphs" textLength="38" x="338" y="28.1543">Wheel</text><line style="stroke: #A80036; stroke-width: 1.5;" x1="310" x2="378" y1="40" y2="40"/><line style="stroke: #A80036; stroke-width: 1.5;" x1="310" x2="378" y1="48" y2="48"/><rect fill="#FEFECE" filter="url(#f1)" height="48" style="stroke: #A80036; stroke-width: 1.5;" width="76" x="151" y="134"/><ellipse cx="166" cy="150" fill="#ADD1B2" rx="11" ry="11" style="stroke: #A80036; stroke-width: 1.0;"/><path d="M168.9688,155.6406 Q168.3906,155.9375 167.75,156.0859 Q167.1094,156.2344 166.4063,156.2344 Q163.9063,156.2344 162.5859,154.5859 Q161.2656,152.9375 161.2656,149.8125 Q161.2656,146.6875 162.5859,145.0313 Q163.9063,143.375 166.4063,143.375 Q167.1094,143.375 167.7578,143.5313 Q168.4063,143.6875 168.9688,143.9844 L168.9688,146.7031 Q168.3438,146.125 167.75,145.8516 Q167.1563,145.5781 166.5313,145.5781 Q165.1875,145.5781 164.5,146.6484 Q163.8125,147.7188 163.8125,149.8125 Q163.8125,151.9063 164.5,152.9766 Q165.1875,154.0469 166.5313,154.0469 Q167.1563,154.0469 167.75,153.7734 Q168.3438,153.5 168.9688,152.9219 L168.9688,155.6406 Z "/><text fill="#000000" font-family="sans-serif" font-size="12" lengthAdjust="spacingAndGlyphs" textLength="44" x="180" y="154.1543">Person</text><line style="stroke: #A80036; stroke-width: 1.5;" x1="152" x2="226" y1="166" y2="166"/><line style="stroke: #A80036; stroke-width: 1.5;" x1="152" x2="226" y1="174" y2="174"/><path d="M74.1836,32 C100.99,32 137.762,32 162.399,32 " fill="none" style="stroke: #A80036; stroke-width: 1.0;"/><text fill="#000000" font-family="sans-serif" font-size="13" lengthAdjust="spacingAndGlyphs" textLength="38" x="93" y="27.0669">drives</text><polygon fill="#000000" points="134,21.0664,140,24.0664,134,27.0664,134,21.0664" style="stroke: #000000; stroke-width: 1.0;"/><path d="M228.974,32 C253.731,32 285.222,32 308.993,32 " fill="none" style="stroke: #A80036; stroke-width: 1.0;"/><polygon fill="#A80036" points="215.645,32,221.645,36,227.645,32,221.645,28,215.645,32" style="stroke: #A80036; stroke-width: 1.0;"/><text fill="#000000" font-family="sans-serif" font-size="13" lengthAdjust="spacingAndGlyphs" textLength="43" x="233.5" y="27.0669">have 4</text><polygon fill="#000000" points="279.5,21.0664,285.5,24.0664,279.5,27.0664,279.5,21.0664" style="stroke: #000000; stroke-width: 1.0;"/><path d="M189,56.294 C189,78.606 189,111.4924 189,133.7805 " fill="none" style="stroke: #A80036; stroke-width: 1.0;"/><polygon fill="#000000" points="201.5,97,204.5,91,207.5,97,201.5,97" style="stroke: #000000; stroke-width: 1.0;"/><text fill="#000000" font-family="sans-serif" font-size="13" lengthAdjust="spacingAndGlyphs" textLength="32" x="190" y="112.0669">owns</text></g></svg>