<?xml version="1.0" encoding="UTF-8" standalone="yes"?><svg xmlns="http://www.w3.org/2000/svg" xmlns:xlink="http://www.w3.org/1999/xlink" height="375px" style="width:379px;height:375px;" version="1.1" viewBox="0 0 379 375" width="379px"><defs><filter height="300%" id="f1" width="300%" x="-1" y="-1"><feGaussianBlur result="blurOut" stdDeviation="2.0"/><feColorMatrix in="blurOut" result="blurOut2" type="matrix" values="0 0 0 0 0 0 0 0 0 0 0 0 0 0 0 0 0 0 .4 0"/><feOffset dx="4.0" dy="4.0" in="blurOut2" result="blurOut3"/><feBlend in="SourceGraphic" in2="blurOut3" mode="normal"/></filter></defs><g><rect fill="#FFFFFF" filter="url(#f1)" height="151.7578" style="stroke: #A80036; stroke-width: 1.0;" width="10" x="91.5" y="119.6094"/><rect fill="#FFFFFF" filter="url(#f1)" height="91.0547" style="stroke: #A80036; stroke-width: 1.0;" width="10" x="222.5" y="149.9609"/><rect fill="#FFFFFF" filter="url(#f1)" height="30.3516" style="stroke: #A80036; stroke-width: 1.0;" width="10" x="327" y="180.3125"/><line style="stroke: #A80036; stroke-width: 1.0; stroke-dasharray: 5.0,5.0;" x1="25" x2="25" y1="87.6094" y2="289.7188"/><line style="stroke: #A80036; stroke-width: 1.0; stroke-dasharray: 5.0,5.0;" x1="96" x2="96" y1="87.6094" y2="289.7188"/><line style="stroke: #A80036; stroke-width: 1.0; stroke-dasharray: 5.0,5.0;" x1="227" x2="227" y1="87.6094" y2="289.7188"/><line style="stroke: #A80036; stroke-width: 1.0; stroke-dasharray: 5.0,5.0;" x1="332" x2="332" y1="87.6094" y2="289.7188"/><text fill="#000000" font-family="sans-serif" font-size="14" lengthAdjust="spacingAndGlyphs" textLength="29" x="8" y="84.5332">User</text><ellipse cx="25.5" cy="13" fill="#FEFECE" filter="url(#f1)" rx="8" ry="8" style="stroke: #A80036; stroke-width: 2.0;"/><path d="M25.5,21 L25.5,48 M12.5,29 L38.5,29 M25.5,48 L12.5,63 M25.5,48 L38.5,63 " fill="#FEFECE" filter="url(#f1)" style="stroke: #A80036; stroke-width: 2.0;"/><text fill="#000000" font-family="sans-serif" font-size="14" lengthAdjust="spacingAndGlyphs" textLength="29" x="8" y="303.252">User</text><ellipse cx="25.5" cy="316.3281" fill="#FEFECE" filter="url(#f1)" rx="8" ry="8" style="stroke: #A80036; stroke-width: 2.0;"/><path d="M25.5,324.3281 L25.5,351.3281 M12.5,332.3281 L38.5,332.3281 M25.5,351.3281 L12.5,366.3281 M25.5,351.3281 L38.5,366.3281 " fill="#FEFECE" filter="url(#f1)" style="stroke: #A80036; stroke-width: 2.0;"/><rect fill="#FEFECE" filter="url(#f1)" height="31.6094" style="stroke: #A80036; stroke-width: 1.5;" width="81" x="54" y="51"/><text fill="#000000" font-family="sans-serif" font-size="14" lengthAdjust="spacingAndGlyphs" textLength="67" x="61" y="72.5332">First Class</text><rect fill="#FEFECE" filter="url(#f1)" height="31.6094" style="stroke: #A80036; stroke-width: 1.5;" width="81" x="54" y="288.7188"/><text fill="#000000" font-family="sans-serif" font-size="14" lengthAdjust="spacingAndGlyphs" textLength="67" x="61" y="310.252">First Class</text><rect fill="#FEFECE" filter="url(#f1)" height="31.6094" style="stroke: #A80036; stroke-width: 1.5;" width="101" x="175" y="51"/><text fill="#000000" font-family="sans-serif" font-size="14" lengthAdjust="spacingAndGlyphs" textLength="87" x="182" y="72.5332">Second Class</text><rect fill="#FEFECE" filter="url(#f1)" height="31.6094" style="stroke: #A80036; stroke-width: 1.5;" width="101" x="175" y="288.7188"/><text fill="#000000" font-family="sans-serif" font-size="14" lengthAdjust="spacingAndGlyphs" textLength="87" x="182" y="310.252">Second Class</text><rect fill="#FEFECE" filter="url(#f1)" height="31.6094" style="stroke: #A80036; stroke-width: 1.5;" width="80" x="290" y="51"/><text fill="#000000" font-family="sans-serif" font-size="14" lengthAdjust="spacingAndGlyphs" textLength="66" x="297" y="72.5332">Last Class</text><rect fill="#FEFECE" filter="url(#f1)" height="31.6094" style="stroke: #A80036; stroke-width: 1.5;" width="80" x="290" y="288.7188"/><text fill="#000000" font-family="sans-serif" font-size="14" lengthAdjust="spacingAndGlyphs" textLength="66" x="297" y="310.252">Last Class</text><rect fill="#FFFFFF" filter="url(#f1)" height="151.7578" style="stroke: #A80036; stroke-width: 1.0;" width="10" x="91.5" y="119.6094"/><rect fill="#FFFFFF" filter="url(#f1)" height="91.0547" style="stroke: #A80036; stroke-width: 1.0;" width="10" x="222.5" y="149.9609"/><rect fill="#FFFFFF" filter="url(#f1)" height="30.3516" style="stroke: #A80036; stroke-width: 1.0;" width="10" x="327" y="180.3125"/><polygon fill="#A80036" points="79.5,115.6094,89.5,119.6094,79.5,123.6094,83.5,119.6094" style="stroke: #A80036; stroke-width: 1.0;"/><line style="stroke: #A80036; stroke-width: 1.0;" x1="25.5" x2="85.5" y1="119.6094" y2="119.6094"/><text fill="#000000" font-family="sans-serif" font-size="13" lengthAdjust="spacingAndGlyphs" textLength="47" x="32.5" y="115.1045">DoWork</text><polygon fill="#A80036" points="210.5,145.9609,220.5,149.9609,210.5,153.9609,214.5,149.9609" style="stroke: #A80036; stroke-width: 1.0;"/><line style="stroke: #A80036; stroke-width: 1.0;" x1="101.5" x2="216.5" y1="149.9609" y2="149.9609"/><text fill="#000000" font-family="sans-serif" font-size="13" lengthAdjust="spacingAndGlyphs" textLength="90" x="108.5" y="145.4561">Create Request</text><polygon fill="#A80036" points="315,176.3125,325,180.3125,315,184.3125,319,180.3125" style="stroke: #A80036; stroke-width: 1.0;"/><line style="stroke: #A80036; stroke-width: 1.0;" x1="232.5" x2="321" y1="180.3125" y2="180.3125"/><text fill="#000000" font-family="sans-serif" font-size="13" lengthAdjust="spacingAndGlyphs" textLength="47" x="239.5" y="175.8076">DoWork</text><polygon fill="#A80036" points="243.5,206.6641,233.5,210.6641,243.5,214.6641,239.5,210.6641" style="stroke: #A80036; stroke-width: 1.0;"/><line style="stroke: #A80036; stroke-width: 1.0; stroke-dasharray: 2.0,2.0;" x1="237.5" x2="331" y1="210.6641" y2="210.6641"/><text fill="#000000" font-family="sans-serif" font-size="13" lengthAdjust="spacingAndGlyphs" textLength="61" x="249.5" y="206.1592">WorkDone</text><line style="stroke: #A80036; stroke-width: 2.0;" x1="323" x2="341" y1="201.6641" y2="219.6641"/><line style="stroke: #A80036; stroke-width: 2.0;" x1="323" x2="341" y1="219.6641" y2="201.6641"/><polygon fill="#A80036" points="112.5,237.0156,102.5,241.0156,112.5,245.0156,108.5,241.0156" style="stroke: #A80036; stroke-width: 1.0;"/><line style="stroke: #A80036; stroke-width: 1.0; stroke-dasharray: 2.0,2.0;" x1="106.5" x2="226.5" y1="241.0156" y2="241.0156"/><text fill="#000000" font-family="sans-serif" font-size="13" lengthAdjust="spacingAndGlyphs" textLength="97" x="118.5" y="236.5107">Request Created</text><polygon fill="#A80036" points="36.5,267.3672,26.5,271.3672,36.5,275.3672,32.5,271.3672" style="stroke: #A80036; stroke-width: 1.0;"/><line style="stroke: #A80036; stroke-width: 1.0; stroke-dasharray: 2.0,2.0;" x1="30.5" x2="95.5" y1="271.3672" y2="271.3672"/><text fill="#000000" font-family="sans-serif" font-size="13" lengthAdjust="spacingAndGlyphs" textLength="30" x="42.5" y="266.8623">Done</text></g></svg>